<?xml version="1.0" encoding="utf-8"?>
<!-- Generator: Adobe Illustrator 22.0.0, SVG Export Plug-In . SVG Version: 6.00 Build 0)  -->
<svg version="1.1" id="Layer_1" xmlns="http://www.w3.org/2000/svg" xmlns:xlink="http://www.w3.org/1999/xlink" x="0px" y="0px"
	 viewBox="0 0 460 150" style="enable-background:new 0 0 460 150;" xml:space="preserve">
<style type="text/css">
	.st0{fill-rule:evenodd;clip-rule:evenodd;}
	.st1{fill-rule:evenodd;clip-rule:evenodd;fill:#FFFFFF;}
	.st2{fill:#1D1C1A;}
	.st3{fill:#F0C419;}
	.st4{fill:#F9D027;}
	.st5{fill:url(#SVGID_1_);}
	.st6{fill-rule:evenodd;clip-rule:evenodd;fill:#F0C419;}
	.st7{fill:none;stroke:#565656;stroke-miterlimit:10;}
	.st8{fill-rule:evenodd;clip-rule:evenodd;fill:#EFC31A;}
	.st9{fill-rule:evenodd;clip-rule:evenodd;fill:url(#SVGID_2_);}
	.st10{fill-rule:evenodd;clip-rule:evenodd;fill:url(#SVGID_3_);}
	.st11{fill-rule:evenodd;clip-rule:evenodd;fill:url(#SVGID_4_);}
	.st12{fill-rule:evenodd;clip-rule:evenodd;fill:url(#SVGID_5_);}
	.st13{fill-rule:evenodd;clip-rule:evenodd;fill:url(#SVGID_6_);}
	.st14{fill:url(#SVGID_7_);}
	.st15{fill:url(#SVGID_8_);}
	.st16{fill:#EFC31A;}
	.st17{fill-rule:evenodd;clip-rule:evenodd;fill:url(#SVGID_9_);}
	.st18{fill-rule:evenodd;clip-rule:evenodd;fill:url(#SVGID_10_);}
	.st19{fill-rule:evenodd;clip-rule:evenodd;fill:url(#SVGID_11_);}
	.st20{fill-rule:evenodd;clip-rule:evenodd;fill:url(#SVGID_12_);}
	.st21{fill-rule:evenodd;clip-rule:evenodd;fill:url(#SVGID_13_);}
	.st22{fill:url(#SVGID_14_);}
	.st23{fill:url(#SVGID_15_);}
	.st24{fill-rule:evenodd;clip-rule:evenodd;fill:url(#SVGID_16_);}
	.st25{fill-rule:evenodd;clip-rule:evenodd;fill:url(#SVGID_17_);}
	.st26{fill-rule:evenodd;clip-rule:evenodd;fill:url(#SVGID_18_);}
	.st27{fill-rule:evenodd;clip-rule:evenodd;fill:url(#SVGID_19_);}
	.st28{fill-rule:evenodd;clip-rule:evenodd;fill:url(#SVGID_20_);}
	.st29{fill:url(#SVGID_21_);}
	.st30{fill:url(#SVGID_22_);}
	.st31{fill-rule:evenodd;clip-rule:evenodd;fill:url(#SVGID_23_);}
	.st32{fill-rule:evenodd;clip-rule:evenodd;fill:url(#SVGID_24_);}
	.st33{fill-rule:evenodd;clip-rule:evenodd;fill:url(#SVGID_25_);}
	.st34{fill-rule:evenodd;clip-rule:evenodd;fill:url(#SVGID_26_);}
	.st35{fill-rule:evenodd;clip-rule:evenodd;fill:url(#SVGID_27_);}
	.st36{fill:url(#SVGID_28_);}
	.st37{fill:url(#SVGID_29_);}
	.st38{fill-rule:evenodd;clip-rule:evenodd;fill:url(#SVGID_30_);}
	.st39{fill-rule:evenodd;clip-rule:evenodd;fill:url(#SVGID_31_);}
	.st40{fill-rule:evenodd;clip-rule:evenodd;fill:url(#SVGID_32_);}
	.st41{fill-rule:evenodd;clip-rule:evenodd;fill:url(#SVGID_33_);}
	.st42{fill-rule:evenodd;clip-rule:evenodd;fill:url(#SVGID_34_);}
	.st43{fill:url(#SVGID_35_);}
	.st44{fill:url(#SVGID_36_);}
	.st45{fill:none;}
	.st46{fill-rule:evenodd;clip-rule:evenodd;fill:#BFD4EE;}
	.st47{fill-rule:evenodd;clip-rule:evenodd;fill:#E9F0F9;}
	.st48{fill-rule:evenodd;clip-rule:evenodd;fill:#9CBCE3;}
	.st49{fill:#E9F0F9;}
	.st50{fill:#F9B765;}
	.st51{fill-rule:evenodd;clip-rule:evenodd;fill:#4272B7;}
	.st52{fill-rule:evenodd;clip-rule:evenodd;fill:#234C8A;}
	.st53{fill-rule:evenodd;clip-rule:evenodd;fill:#182E54;}
	.st54{fill-rule:evenodd;clip-rule:evenodd;fill:#F9B765;}
</style>
<g>
	<g>
		<path class="st6" d="M189.5,106.5c-0.1,8.6-4.2,13.9-14,13.9c0-6.4,0-32.5,0-39.2c0.1-9.7,7.3-17.7,17-17.9c17-0.3,40-0.1,40.2,0
			c0,7.7-6.7,14-15.6,14c-9.4,0.2-27.5,0-27.5,0S189.6,100.4,189.5,106.5z"/>
		<path class="st6" d="M232.8,63.1c0.1,9-8.1,14.2-16.7,14.2c-9.5,0.2-13.1,0.2-22.6,0c-8.5-0.1-15.8,3.5-18,11
			c-1.5-18.7,7.5-25.2,19.2-25.2H232.8z"/>
		<path class="st6" d="M232.8,34.3c0.1,9-8.1,14.2-16.7,14.2l-22.6,0c-9.1,0.2-15.8,3.5-18,11c-1.5-18.7,7.5-25.2,19.2-25.2H232.8z"
			/>
	</g>
	<g>
		<path class="st6" d="M315.7,79.8c0-8.6-5.2-16.8-14.2-16.7l0,40.6c0,8.6,5.2,16.8,14.2,16.7L315.7,79.8z"/>
		<path class="st6" d="M344.2,79.8c0-8.6-5.2-16.8-14.2-16.7l0,40.6c0,8.6,5.2,16.8,14.2,16.7L344.2,79.8z"/>
		<path class="st6" d="M372.7,79.8c0-8.6-5.2-16.8-14.2-16.7l0,40.6c0,8.6,5.2,16.8,14.2,16.7L372.7,79.8z"/>
		<path class="st6" d="M364.3,77.3c8.6,0-5.6-5.2-5.6-14.2l-57.3,0c6.3,8.9,9.1,7.1,2.9,14.2L364.3,77.3z"/>
	</g>
	<g>
		<path class="st6" d="M292.2,79.8c0-8.6-5.2-16.8-14.2-16.7l0,40.6c0,8.6,5.2,16.8,14.2,16.7L292.2,79.8z"/>
		<path class="st6" d="M271.4,103.9c-2.2,1.4-4.9,2.3-7.7,2.3c-7.9,0-14.4-6.4-14.4-14.4s6.4-14.4,14.4-14.4
			c7.9,0,14.4,6.4,14.4,14.4h14.2c0-15.8-12.8-28.6-28.6-28.6c-15.8,0-28.6,12.8-28.6,28.6c0,15.8,12.8,28.6,28.6,28.6
			c2.7,0,5.3-0.4,7.7-1.1V103.9z"/>
	</g>
	<g>
		<path class="st6" d="M439.4,79.8c0-8.6-5.2-16.8-14.2-16.7l0,40.6c0,8.6,5.2,16.8,14.2,16.7L439.4,79.8z"/>
		<path class="st6" d="M418.5,103.9c-2.2,1.4-4.9,2.3-7.7,2.3c-7.9,0-14.4-6.4-14.4-14.4s6.4-14.4,14.4-14.4s14.4,6.4,14.4,14.4
			h14.2c0-15.8-12.8-28.6-28.6-28.6s-28.6,12.8-28.6,28.6c0,15.8,12.8,28.6,28.6,28.6c2.7,0,5.3-0.4,7.7-1.1V103.9z"/>
	</g>
</g>
<g>
	<path class="st8" d="M54.9,101.6c0,15.9,0,30.7,0,30.7C37,120.6,26.7,101.7,25.4,82L54.9,101.6z"/>
	<path class="st8" d="M62.6,11.4c6.2,0,12.2,0,18.1,0.1c0.4,0,1.2,1,1.2,1.5c0.1,5.4,0.1,10.7,0,16.1c0,0.5-1,1.4-1.5,1.4
		c-5.4,0.1-10.8,0.1-16.2,0c-0.5,0-1.5-1-1.5-1.5C62.5,23.3,62.6,17.6,62.6,11.4z"/>
	<path class="st8" d="M43.6,31c5.9,0,11.3,0,16.8,0c0.5,0,1.1,0.1,1.8,0.1c0,6.1,0,12,0,18.4c-1.6,0-3.2,0-4.9,0
		c-3.9,0-7.8,0.1-11.6-0.1c-0.7,0-1.9-0.8-2-1.2C43.5,42.6,43.6,37,43.6,31z"/>
	<path class="st8" d="M43.1,50.1c0,3.8,0,7.4,0,11.1c-3.7,0-7.3,0-11.2,0c0-3.6,0-7.2,0-11.1C35.6,50.1,39.3,50.1,43.1,50.1z"/>
	<path class="st8" d="M43,30.6c-3.5,0-6.8,0-10.1,0c-0.4,0-1.1-0.7-1.2-1.1c-0.1-3.4-0.1-6.7-0.1-10.4c2.1,0,3.9,0,5.7,0
		c1.8,0,3.6,0,5.6,0C43,22.9,43,26.6,43,30.6z"/>
	<path class="st8" d="M51.1,11.3c0,2.5,0,4.8,0,7.6c-2.2,0-4.4,0.1-6.5-0.1c-0.4,0-1-0.8-1-1.2c-0.1-2,0-4.1,0-6.3
		C46.2,11.3,48.5,11.3,51.1,11.3z"/>
	<path class="st8" d="M31.2,18.6c-0.3,0.2-0.4,0.2-0.4,0.2c-6.6,0.2-6,1.1-5.6-6.4c1,0,2,0,2.9,0c0.9,0,1.9,0,3.1,0
		C31.2,14.6,31.2,16.6,31.2,18.6z"/>
	<path class="st8" d="M31.4,46.4c0,3.1,0,3-3.3,3.1c-2.1,0.1-3.4-0.1-3.2-2.8c0.3-3.6,0.1-3.6,3.1-3.6
		C31.4,43.2,31.4,43.2,31.4,46.4z"/>
	<linearGradient id="SVGID_1_" gradientUnits="userSpaceOnUse" x1="27.801" y1="73.6875" x2="73.0603" y2="136.2416">
		<stop  offset="0" style="stop-color:#EFC31A"/>
		<stop  offset="1" style="stop-color:#F5822B"/>
	</linearGradient>
	<path style="fill-rule:evenodd;clip-rule:evenodd;fill:url(#SVGID_1_);" d="M51.1,79c0-0.6,0-1.1,0-1.7H25
		c0,21.3,10.2,40.2,26.1,52.1V79z"/>
	<g>
		<linearGradient id="SVGID_2_" gradientUnits="userSpaceOnUse" x1="116.5169" y1="68.1819" x2="63.1983" y2="68.1819">
			<stop  offset="0" style="stop-color:#EFC31A"/>
			<stop  offset="1" style="stop-color:#F5822B"/>
		</linearGradient>
		<path class="st9" d="M116.5,56.5c0.1,8.3-4.8,15.7-12,15.7l-23.1,0c-7.7,0.1-16.2,0.7-18.1,7.6C62,62.5,74.6,56.5,84.4,56.5H116.5
			z"/>
		<linearGradient id="SVGID_3_" gradientUnits="userSpaceOnUse" x1="89.871" y1="136.1709" x2="89.871" y2="95.1642">
			<stop  offset="0" style="stop-color:#EFC31A"/>
			<stop  offset="1" style="stop-color:#F5822B"/>
		</linearGradient>
		<path class="st10" d="M76.3,123.3c-0.1,7.9-3.9,12.9-13,12.9c0-5.9,0-30.1,0-36.3c0.1-9,6.8-16.4,15.8-16.6
			c15.8-0.3,37.1-0.1,37.3,0c0,7.1-6.2,13-14.5,13c-8.7,0.2-25.6,0-25.6,0S76.4,117.7,76.3,123.3z"/>
		<linearGradient id="SVGID_4_" gradientUnits="userSpaceOnUse" x1="65.4821" y1="68.2711" x2="122.3055" y2="130.1142">
			<stop  offset="0" style="stop-color:#EFC31A"/>
			<stop  offset="1" style="stop-color:#F5822B"/>
		</linearGradient>
		<path class="st11" d="M116.5,83.2c0.1,8.3-6.5,13.2-15.5,13.2c-8.8,0.2-12.1,0.2-21,0c-7.9-0.1-14.7,3.2-16.7,10.2
			c-1.4-17.3,6.5-23.3,17.8-23.3H116.5z"/>
		<linearGradient id="SVGID_5_" gradientUnits="userSpaceOnUse" x1="72.1694" y1="46.0863" x2="129.9775" y2="118.1163">
			<stop  offset="0" style="stop-color:#EFC31A"/>
			<stop  offset="1" style="stop-color:#F5822B"/>
		</linearGradient>
		<path class="st12" d="M116.5,56.5c0.1,8.3-7.5,13.2-15.5,13.2l-21,0c-8.4,0.1-14.7,3.2-16.7,10.2c-1.4-17.3,7-23.3,17.8-23.3
			H116.5z"/>
	</g>
	<linearGradient id="SVGID_6_" gradientUnits="userSpaceOnUse" x1="45.3161" y1="-0.4767" x2="148.6595" y2="130.8896">
		<stop  offset="0" style="stop-color:#EFC31A"/>
		<stop  offset="1" style="stop-color:#F5822B"/>
	</linearGradient>
	<path style="fill:url(#SVGID_6_);" d="M90.6,12.1c-0.3,0-0.7,0-1,0v25.9c0.3,0,0.7,0,1,0c1.6,0,3.2,0.1,4.7,0.3
		c26.5,2.7,47.2,24.9,47.2,52c0,28.7-23.2,51.9-51.9,52.3v0h0c36.2,0,65.5-29.2,65.5-65.2C156.1,41.3,126.8,12.1,90.6,12.1z"/>
	<linearGradient id="SVGID_7_" gradientUnits="userSpaceOnUse" x1="36.8731" y1="6.1675" x2="140.2012" y2="137.5143">
		<stop  offset="0" style="stop-color:#EFC31A"/>
		<stop  offset="1" style="stop-color:#F5822B"/>
	</linearGradient>
	<path class="st14" d="M142.5,90.3c0-27.1-20.7-49.3-47.2-52c19.6,2.3,34.8,18.9,34.8,39c0,21.7-17.7,39.3-39.5,39.3h0v25.9
		C119.3,142.3,142.5,119,142.5,90.3z"/>
	<path class="st16" d="M142.5,90.3c0-27.1-20.7-49.3-47.2-52c19.6,2.3,34.8,18.9,34.8,39c0,21.7-17.7,39.3-39.5,39.3h0v25.9
		C119.3,142.3,142.5,119,142.5,90.3z"/>
</g>
</svg>
